<svg width="688" height="142" viewBox="0 0 688 142" fill="none" xmlns="http://www.w3.org/2000/svg">
    <path d="M687.372 117.991C687.372 130.789 676.997 141.164 664.199 141.164C651.402 141.164 641.027 130.789 641.027 117.991C641.027 105.194 651.402 94.8191 664.199 94.8191C676.997 94.8191 687.372 105.194 687.372 117.991Z" fill="#F2F2F2"/>
    <path d="M42.5805 35.3947C31.1489 35.3947 21.7254 39.2567 14.3103 46.9808C7.04962 54.7049 3.34204 64.4373 3.34204 76.3325C3.34204 88.3821 7.04962 98.269 14.3103 105.839C21.571 113.408 30.9944 117.116 42.5805 117.116C61.2729 117.116 75.3308 106.765 79.0384 87.7642H59.4191C57.5653 94.0979 51.386 98.7324 43.5074 98.7324C32.2302 98.7324 24.0427 89.309 24.0427 76.3325C24.0427 69.6897 25.8965 64.2828 29.4496 60.1118C33.0026 55.7863 37.6371 53.6236 43.044 53.6236C50.9226 53.6236 56.9474 57.7946 59.2646 64.7463H78.7294C75.7943 45.5905 61.7364 35.3947 42.5805 35.3947Z" fill="#F2F2F2"/>
    <path d="M90.2601 2.64441V115.417H110.188V74.0152C110.188 61.6567 115.904 54.8594 124.092 54.8594C131.507 54.8594 135.214 59.4939 135.214 68.9173V115.417H155.452V64.5918C155.452 46.5174 146.646 35.3947 130.117 35.3947C121.311 35.3947 114.668 38.6388 110.188 45.2815V2.64441H90.2601Z" fill="#F2F2F2"/>
    <path d="M204.231 35.3947C192.644 35.3947 183.375 39.2567 176.115 46.9808C168.854 54.5505 165.301 64.4373 165.301 76.3325C165.301 88.5366 168.854 98.4234 175.96 105.993C183.221 113.408 192.644 117.116 204.231 117.116C222.923 117.116 235.127 107.692 240.07 90.8538H220.606C218.288 96.8786 213.036 99.9683 204.849 99.9683C193.88 99.9683 186.62 92.8621 186.002 82.3573H240.534V76.178C240.534 49.4526 225.858 35.3947 204.231 35.3947ZM186.156 68.4539C187.238 58.7215 193.88 52.0787 203.767 52.0787C213.654 52.0787 220.142 58.567 220.297 68.4539H186.156Z" fill="#F2F2F2"/>
    <path d="M287.103 35.3947C275.671 35.3947 266.248 39.2567 258.833 46.9808C251.572 54.7049 247.865 64.4373 247.865 76.3325C247.865 88.3821 251.572 98.269 258.833 105.839C266.093 113.408 275.517 117.116 287.103 117.116C305.795 117.116 319.853 106.765 323.561 87.7642H303.942C302.088 94.0979 295.909 98.7324 288.03 98.7324C276.753 98.7324 268.565 89.309 268.565 76.3325C268.565 69.6897 270.419 64.2828 273.972 60.1118C277.525 55.7863 282.16 53.6236 287.567 53.6236C295.445 53.6236 301.47 57.7946 303.787 64.7463H323.252C320.317 45.5905 306.259 35.3947 287.103 35.3947Z" fill="#F2F2F2"/>
    <path d="M335.092 2.64441V115.417H355.174V97.8055L364.907 85.4469L383.136 115.417H405.999L378.965 69.9987L401.982 37.094H378.038L355.174 68.7628V2.64441H335.092Z" fill="#F2F2F2"/>
    <path d="M438.446 35.3947C429.332 35.3947 422.226 37.8664 417.128 42.8098C412.03 47.5988 409.558 53.6236 409.558 60.8842C409.558 73.7063 417.437 81.1214 434.584 84.0566C445.707 86.0649 448.797 88.6911 448.797 93.789C448.797 98.5779 445.244 101.204 439.064 101.204C431.804 101.204 427.942 97.96 427.787 91.6262H408.013C408.477 107.229 419.599 117.116 438.601 117.116C456.057 117.116 468.879 108.465 468.879 91.6262C468.879 78.4952 461.928 70.9256 443.39 67.8359C432.73 65.9822 429.641 63.8194 429.641 58.876C429.641 54.087 432.73 51.1519 438.292 51.1519C444.008 51.1519 447.097 54.087 447.252 60.1118H467.18C466.562 45.2815 454.976 35.3947 438.446 35.3947Z" fill="#F2F2F2"/>
    <path d="M523.56 37.094V79.1132C523.56 91.3173 517.999 97.651 510.12 97.651C502.705 97.651 498.997 92.8621 498.997 83.4387V37.094H478.915V87.9186C478.915 105.993 487.566 117.116 504.095 117.116C513.828 117.116 520.625 113.099 524.796 105.221L526.341 115.417H543.488V37.094H523.56Z" fill="#F2F2F2"/>
    <path d="M560.146 2.64441V115.417H577.293L578.838 104.912C584.399 113.099 592.742 117.116 603.71 117.116C614.06 117.116 622.711 113.254 629.663 105.375C636.614 97.4966 640.168 87.7642 640.168 76.178C640.168 64.5918 636.769 55.0139 629.817 47.1353C622.866 39.2567 614.215 35.3947 603.71 35.3947C593.05 35.3947 585.172 38.7933 580.074 45.5905V2.64441H560.146ZM599.539 54.2415C610.661 54.2415 619.312 63.2015 619.312 76.178C619.312 89.309 610.816 98.269 599.539 98.269C594.132 98.269 589.497 96.4152 585.635 92.5531C581.773 88.691 579.765 83.2842 579.765 76.6414V75.7145C579.919 69.0718 581.928 63.9739 585.79 60.1118C589.652 56.2498 594.286 54.2415 599.539 54.2415Z" fill="#F2F2F2"/>
</svg>
